<?xml version="1.0" encoding="utf-8"?>
<svg version="1.1" xmlns:xlink="http://www.w3.org/1999/xlink" width="30px" height="30px" xmlns="http://www.w3.org/2000/svg">
  <g transform="matrix(1 0 0 1 -1054 -37 )">
    <path d="M 29.93044921875 14.965224609375  C 29.93044921875 23.2316015625  23.2316015625 29.93044921875  14.965224609375 29.93044921875  C 6.698876953125 29.93044921875  0 23.2316015625  0 14.965224609375  C 0 6.698876953125  6.698876953125 0  14.965224609375 0  C 23.2316015625 0  29.93044921875 6.698876953125  29.93044921875 14.965224609375  Z M 14.965224609375 1.425  C 7.50615234375 1.425  1.425 7.506826171875  1.425 14.9658984375  C 1.425 22.425  7.506826171875 28.506123046875  14.965224609375 28.506123046875  C 22.424326171875 28.506123046875  28.50544921875 22.424326171875  28.50544921875 14.9658984375  C 28.50544921875 7.506826171875  22.423623046875 1.425673828125  14.965224609375 1.425673828125  Z " fill-rule="nonzero" fill="#f2f2f2" stroke="none" transform="matrix(1 0 0 1 1054 37 )" />
  </g>
</svg>