<?xml version="1.0" encoding="utf-8"?>
<svg version="1.1" xmlns:xlink="http://www.w3.org/1999/xlink" width="15px" height="15px" xmlns="http://www.w3.org/2000/svg">
  <g transform="matrix(1 0 0 1 -1062 -45 )">
    <path d="M 8.59233870967742 7.46410282258064  L 14.5747076612903 1.48170362903226  C 14.869627016129 1.18681451612903  14.869627016129 0.696260080645162  14.5747076612903 0.352772177419355  L 14.5254435483871 0.303508064516129  C 14.2260165260575 0.00986551631629618  13.7466548449102 0.00986551631629618  13.4472278225806 0.303508064516129  L 7.46410282258064 6.33586693548387  L 1.48170362903226 0.353528225806452  C 1.18210406567578 0.0589551996595619  0.70166609561454 0.0589551996595619  0.402066532258065 0.353528225806452  L 0.352772177419355 0.402792338709678  C 0.0585786290322584 0.696290322580645  0.0585786290322584 1.18684475806452  0.352772177419355 1.53030241935484  L 6.33589717741936 7.46413306451613  L 0.35349798387097 13.4465322580645  C 0.0585786290322601 13.7414516129032  0.0585786290322601 14.2320060483871  0.35349798387097 14.5747379032258  L 0.402762096774197 14.6240322580645  C 0.702192804695924 14.9176945786132  1.1815773565944 14.9176945786132  1.48100806451613 14.6240322580645  L 7.46410282258065 8.59233870967742  L 13.446502016129 14.5747379032258  C 13.7461015794855 14.8693109293727  14.2265395495468 14.8693109293727  14.5261391129032 14.5747379032258  L 14.5754334677419 14.5254737903226  C 14.869627016129 14.2320060483871  14.869627016129 13.7414516129032  14.5754334677419 13.3979637096774  L 8.59230846774194 7.46410282258064  Z " fill-rule="nonzero" fill="#f2f2f2" stroke="none" transform="matrix(1 0 0 1 1062 45 )" />
  </g>
</svg>