<?xml version="1.0" encoding="utf-8"?>
<svg version="1.1" xmlns:xlink="http://www.w3.org/1999/xlink" width="12px" height="8px" xmlns="http://www.w3.org/2000/svg">
  <g transform="matrix(1 0 0 1 -378 -104 )">
    <path d="M 5.0081797752809 7.88215873015873  C 4.64575280898876 7.88215873015873  4.28008988764045 7.69930158730159  4.28008988764045 7.28990476190476  L 4.28008988764045 3.79326984126984  L 0.326831460674157 0.889904761904763  C 0.225539508974199 0.820930602279853  0.142490958330024 0.730896404001245  0.084134831460674 0.626793650793652  C 0.0247364317407009 0.520277443016711  0.0304995240363155 0.391951716685272  0.0992359550561794 0.290539682539683  C 0.187715000266704 0.174154091770183  0.317370821222673 0.0913067925250112  0.464898876404494 0.0568888888888889  C 0.594337078651685 0.0193015873015874  0.746426966292135 0  0.920089887640449 0  L 11.0324494382022 0  C 11.2050337078652 0  11.3592808988764 0.0193015873015874  11.4876404494382 0.056888888888888  C 11.63516850462 0.0913067925250112  11.764824325576 0.174154091770183  11.8533033707865 0.290539682539683  C 11.9220398018064 0.391951716685272  11.927802894102 0.520277443016711  11.868404494382 0.626793650793652  C 11.8100483675127 0.730896404001244  11.7269998168685 0.820930602279853  11.6257078651685 0.889904761904763  L 7.67244943820225 3.79326984126984  L 7.67244943820225 5.89714285714286  C 7.67244943820225 6.29536507936508  7.32404494382022 6.78501587301587  6.8634606741573 7.03796825396825  L 5.62840449438202 7.71352380952381  C 5.4234606741573 7.82526984126984  5.2152808988764 7.88215873015873  5.0081797752809 7.88215873015873  Z " fill-rule="nonzero" fill="#7f7f7f" stroke="none" transform="matrix(1 0 0 1 378 104 )" />
  </g>
</svg>