<?xml version="1.0" encoding="utf-8"?>
<svg version="1.1" xmlns:xlink="http://www.w3.org/1999/xlink" width="12px" height="12px" viewBox="18 20.5  12 12" xmlns="http://www.w3.org/2000/svg">
  <path d="M 24 20.5  C 27.36 20.5  30 23.14  30 26.5  C 30 29.86  27.36 32.5  24 32.5  C 20.64 32.5  18 29.86  18 26.5  C 18 23.14  20.64 20.5  24 20.5  Z " fill-rule="nonzero" fill="#ffffff" stroke="none" />
  <path d="M 24 21  C 27.08 21  29.5 23.42  29.5 26.5  C 29.5 29.58  27.08 32  24 32  C 20.92 32  18.5 29.58  18.5 26.5  C 18.5 23.42  20.92 21  24 21  Z " stroke-width="1" stroke="#797979" fill="none" />
  <path d="M 24 29.5  C 22.32 29.5  21 28.18  21 26.5  C 21 24.82  22.32 23.5  24 23.5  C 25.68 23.5  27 24.82  27 26.5  C 27 28.18  25.68 29.5  24 29.5  " fill-rule="nonzero" fill="#797979" stroke="none" />
</svg>