<?xml version="1.0" encoding="utf-8"?>
<svg version="1.1" xmlns:xlink="http://www.w3.org/1999/xlink" width="12px" height="12px" viewBox="18 45.5  12 12" xmlns="http://www.w3.org/2000/svg">
  <path d="M 24 45.5  C 27.36 45.5  30 48.14  30 51.5  C 30 54.86  27.36 57.5  24 57.5  C 20.64 57.5  18 54.86  18 51.5  C 18 48.14  20.64 45.5  24 45.5  Z " fill-rule="nonzero" fill="#ffffff" stroke="none" />
  <path d="M 24 46  C 27.08 46  29.5 48.42  29.5 51.5  C 29.5 54.58  27.08 57  24 57  C 20.92 57  18.5 54.58  18.5 51.5  C 18.5 48.42  20.92 46  24 46  Z " stroke-width="1" stroke="#797979" fill="none" />
  <path d="M 24 54.5  C 22.32 54.5  21 53.18  21 51.5  C 21 49.82  22.32 48.5  24 48.5  C 25.68 48.5  27 49.82  27 51.5  C 27 53.18  25.68 54.5  24 54.5  " fill-rule="nonzero" fill="#797979" stroke="none" />
</svg>