<?xml version="1.0" encoding="utf-8"?>
<svg version="1.1" xmlns:xlink="http://www.w3.org/1999/xlink" width="12px" height="12px" viewBox="18 70.5  12 12" xmlns="http://www.w3.org/2000/svg">
  <path d="M 24 70.5  C 27.36 70.5  30 73.14  30 76.5  C 30 79.86  27.36 82.5  24 82.5  C 20.64 82.5  18 79.86  18 76.5  C 18 73.14  20.64 70.5  24 70.5  Z " fill-rule="nonzero" fill="#ffffff" stroke="none" />
  <path d="M 24 71  C 27.08 71  29.5 73.42  29.5 76.5  C 29.5 79.58  27.08 82  24 82  C 20.92 82  18.5 79.58  18.5 76.5  C 18.5 73.42  20.92 71  24 71  Z " stroke-width="1" stroke="#797979" fill="none" />
  <path d="M 24 79.5  C 22.32 79.5  21 78.18  21 76.5  C 21 74.82  22.32 73.5  24 73.5  C 25.68 73.5  27 74.82  27 76.5  C 27 78.18  25.68 79.5  24 79.5  " fill-rule="nonzero" fill="#797979" stroke="none" />
</svg>