<?xml version="1.0" encoding="utf-8"?>
<svg version="1.1" xmlns:xlink="http://www.w3.org/1999/xlink" width="6px" height="8px" xmlns="http://www.w3.org/2000/svg">
  <defs>
    <mask fill="white" id="clip240">
      <path d="M 5.83717105263156 2.4155701754386  C 5.99753289473682 2.5498903508772  6.00061677631578 2.77467105263157  5.84642269736844 2.91447368421052  C 5.69222861842104 3.05427631578948  5.43626644736844 3.05427631578948  5.27898848684208 2.91721491228071  L 3.40090460526318 1.25328947368421  L 3.40090460526318 7.59375  C 3.40090460526318 7.78837719298245  3.22203947368422 7.94736842105264  3 7.94736842105264  C 2.77796052631578 7.94736842105264  2.59909539473682 7.78837719298245  2.59909539473682 7.59375  L 2.59909539473682 1.25328947368421  L 0.721011513157919 2.91995614035088  C 0.563733552631561 3.05701754385965  0.310855263157919 3.05427631578948  0.153577302631561 2.91721491228071  C -0.000616776315780498 2.77741228070176  -0.000616776315780498 2.55537280701755  0.15666118421052 2.4155701754386  L 2.71628289473682 0.15679824561404  C 2.75328947368422 0.126644736842107  2.79337993421052 0.101973684210533  2.8427220394737 0.0827850877192936  C 2.89206414473682 0.0635964912280668  2.94449013157896 0.0553728070175465  2.99691611842104 0.0553728070175465  C 3.10176809210526 0.0553728070175465  3.20045230263156 0.0910087719298266  3.27754934210526 0.15679824561404  L 5.83717105263156 2.4155701754386  Z " fill-rule="evenodd" />
    </mask>
  </defs>
  <g transform="matrix(1 0 0 1 -528 -80 )">
    <path d="M 5.83717105263156 2.4155701754386  C 5.99753289473682 2.5498903508772  6.00061677631578 2.77467105263157  5.84642269736844 2.91447368421052  C 5.69222861842104 3.05427631578948  5.43626644736844 3.05427631578948  5.27898848684208 2.91721491228071  L 3.40090460526318 1.25328947368421  L 3.40090460526318 7.59375  C 3.40090460526318 7.78837719298245  3.22203947368422 7.94736842105264  3 7.94736842105264  C 2.77796052631578 7.94736842105264  2.59909539473682 7.78837719298245  2.59909539473682 7.59375  L 2.59909539473682 1.25328947368421  L 0.721011513157919 2.91995614035088  C 0.563733552631561 3.05701754385965  0.310855263157919 3.05427631578948  0.153577302631561 2.91721491228071  C -0.000616776315780498 2.77741228070176  -0.000616776315780498 2.55537280701755  0.15666118421052 2.4155701754386  L 2.71628289473682 0.15679824561404  C 2.75328947368422 0.126644736842107  2.79337993421052 0.101973684210533  2.8427220394737 0.0827850877192936  C 2.89206414473682 0.0635964912280668  2.94449013157896 0.0553728070175465  2.99691611842104 0.0553728070175465  C 3.10176809210526 0.0553728070175465  3.20045230263156 0.0910087719298266  3.27754934210526 0.15679824561404  L 5.83717105263156 2.4155701754386  Z " fill-rule="nonzero" fill="#2dd5a5" stroke="none" transform="matrix(1 0 0 1 528 80 )" />
    <path d="M 5.83717105263156 2.4155701754386  C 5.99753289473682 2.5498903508772  6.00061677631578 2.77467105263157  5.84642269736844 2.91447368421052  C 5.69222861842104 3.05427631578948  5.43626644736844 3.05427631578948  5.27898848684208 2.91721491228071  L 3.40090460526318 1.25328947368421  L 3.40090460526318 7.59375  C 3.40090460526318 7.78837719298245  3.22203947368422 7.94736842105264  3 7.94736842105264  C 2.77796052631578 7.94736842105264  2.59909539473682 7.78837719298245  2.59909539473682 7.59375  L 2.59909539473682 1.25328947368421  L 0.721011513157919 2.91995614035088  C 0.563733552631561 3.05701754385965  0.310855263157919 3.05427631578948  0.153577302631561 2.91721491228071  C -0.000616776315780498 2.77741228070176  -0.000616776315780498 2.55537280701755  0.15666118421052 2.4155701754386  L 2.71628289473682 0.15679824561404  C 2.75328947368422 0.126644736842107  2.79337993421052 0.101973684210533  2.8427220394737 0.0827850877192936  C 2.89206414473682 0.0635964912280668  2.94449013157896 0.0553728070175465  2.99691611842104 0.0553728070175465  C 3.10176809210526 0.0553728070175465  3.20045230263156 0.0910087719298266  3.27754934210526 0.15679824561404  L 5.83717105263156 2.4155701754386  Z " stroke-width="2" stroke="#797979" fill="none" transform="matrix(1 0 0 1 528 80 )" mask="url(#clip240)" />
  </g>
</svg>