<?xml version="1.0" encoding="utf-8"?>
<svg version="1.1" xmlns:xlink="http://www.w3.org/1999/xlink" width="12px" height="12px" xmlns="http://www.w3.org/2000/svg">
  <g transform="matrix(1 0 0 1 -748 -431 )">
    <path d="M 11.9089484536082 6.05090909090909  C 11.9089484536082 2.77042424242424  9.24767010309278 0.110545454545455  5.96486597938144 0.110545454545455  C 2.68305154639175 0.110545454545455  0.0207835051546382 2.77042424242424  0.0207835051546382 6.05090909090909  C 0.0207835051546382 9.33236363636364  2.68305154639175 11.9922424242424  5.96486597938144 11.9922424242424  C 9.24767010309278 11.9922424242424  11.9089484536082 9.33236363636364  11.9089484536082 6.05090909090909  Z M 6.65270103092783 9.44872727272728  L 5.09888659793814 9.44872727272728  L 5.09888659793814 8.01745454545455  L 6.65270103092783 8.01745454545455  L 6.65270103092783 9.44775757575758  Z M 7.28709278350515 6.06060606060606  C 6.69426804123711 6.45430303030303  6.43101030927835 6.83733333333333  6.49435051546392 7.20969696969697  L 6.49435051546392 7.45890909090909  L 5.22457731958763 7.45890909090909  L 5.22457731958763 7.11757575757576  C 5.20379381443299 6.47563636363636  5.4799175257732 5.95684848484848  6.04898969072165 5.56315151515152  C 6.57649484536082 5.15006060606061  6.83084536082474 4.77575757575758  6.81105154639175 4.44412121212121  C 6.76849484536083 4.00969696969697  6.52503092783505 3.77115151515152  6.08164948453608 3.72945454545455  C 5.48882474226804 3.72945454545455  5.11967010309278 4.11345454545455  4.97220618556701 4.87951515151515  L 3.5440824742268 4.56921212121212  C 3.79843298969072 3.16121212121212  4.71785567010309 2.47660606060606  6.30432989690722 2.51830303030303  C 7.61567010309278 2.58036363636364  8.32329896907217 3.16024242424242  8.42919587628866 4.25890909090909  C 8.47175257731959 4.92218181818182  8.09270103092783 5.52242424242424  7.2880824742268 6.06060606060606  Z " fill-rule="nonzero" fill="#000000" stroke="none" transform="matrix(1 0 0 1 748 431 )" />
  </g>
</svg>