<?xml version="1.0" encoding="utf-8"?>
<svg version="1.1" xmlns:xlink="http://www.w3.org/1999/xlink" width="6px" height="6px" xmlns="http://www.w3.org/2000/svg">
  <g transform="matrix(1 0 0 1 -29 -17 )">
    <path d="M 2.97278571428572 5.91573529411765  L 2.97278571428572 5.91683823529412  C 1.41364285714286 5.91683823529412  0.144214285714286 4.61095588235294  0.144214285714286 3.00507352941177  C 0.144214285714286 1.39919117647059  1.41278571428571 0.0933088235294122  2.97278571428572 0.0933088235294122  C 2.99113300546771 0.092941185174768  3.00948333770241 0.0927573529411774  3.0278341044084 0.0927573529411774  C 4.5900109682155 0.0927573529411774  5.85640553297983 1.39639881666916  5.85640553297983 3.00452205882353  C 5.85640553297983 4.6126453009779  4.5900109682155 5.91628676470588  3.0278341044084 5.91628676470588  C 3.00948333770241 5.91628676470588  2.99113300546771 5.91610293247229  2.97278571428572 5.91573529411765  Z M 2.97278571428571 1.42522058823529  C 2.12494972547404 1.42522058823529  1.43764285714286 2.13274236445857  1.43764285714286 3.00551470588235  C 1.43764285714286 3.87828704730614  2.12494972547404 4.58580882352941  2.97278571428571 4.58580882352941  C 3.82062170309738 4.58580882352941  4.50792857142857 3.87828704730613  4.50792857142857 3.00551470588235  C 4.50686576097679 2.13323166830318  3.82014651947097 1.42641347832668  2.97278571428572 1.42544117647059  Z " fill-rule="nonzero" fill="#606266" stroke="none" transform="matrix(1 0 0 1 29 17 )" />
  </g>
</svg>