<?xml version="1.0" encoding="utf-8"?>
<svg version="1.1" xmlns:xlink="http://www.w3.org/1999/xlink" width="20px" height="20px" xmlns="http://www.w3.org/2000/svg">
  <g transform="matrix(1 0 0 1 -271 -196 )">
    <path d="M 271 196  L 291 196  L 291 216  L 271 216  L 271 196  " fill-rule="nonzero" fill="#cccccc" stroke="none" />
    <path d="M 272 197  L 290 197  L 290 215  L 272 215  L 272 197  " fill-rule="nonzero" fill="#ffffff" stroke="none" />
    <path d="M 282.9 202  C 282.06 202  281.4 201.34  281.4 200.5  C 281.4 199.66  282.06 199  282.9 199  C 283.74 199  284.4 199.66  284.4 200.5  C 284.4 201.34  283.74 202  282.9 202  " fill-rule="nonzero" fill="#cccccc" stroke="none" />
    <path d="M 273 215  L 273 205.65  L 277.25 201.4  L 283.2 204.8  L 286.6 203.95  L 290 204.8  L 290 215  L 273 215  " fill-rule="nonzero" fill="#169bd5" stroke="none" />
  </g>
</svg>