<?xml version="1.0" encoding="utf-8"?>
<svg version="1.1" xmlns:xlink="http://www.w3.org/1999/xlink" width="55px" height="25px" xmlns="http://www.w3.org/2000/svg">
  <g transform="matrix(1 0 0 1 -1011 -304 )">
    <path d="M 1011.5 308  A 3.5 3.5 0 0 1 1015 304.5 L 1062 304.5  A 3.5 3.5 0 0 1 1065.5 308 L 1065.5 325  A 3.5 3.5 0 0 1 1062 328.5 L 1015 328.5  A 3.5 3.5 0 0 1 1011.5 325 L 1011.5 308  Z " fill-rule="nonzero" fill="#ffffff" stroke="none" />
    <path d="M 1011.5 308  A 3.5 3.5 0 0 1 1015 304.5 L 1062 304.5  A 3.5 3.5 0 0 1 1065.5 308 L 1065.5 325  A 3.5 3.5 0 0 1 1062 328.5 L 1015 328.5  A 3.5 3.5 0 0 1 1011.5 325 L 1011.5 308  Z " stroke-width="1" stroke="#3894df" fill="none" />
  </g>
</svg>