<?xml version="1.0" encoding="utf-8"?>
<svg version="1.1" xmlns:xlink="http://www.w3.org/1999/xlink" width="30px" height="30px" xmlns="http://www.w3.org/2000/svg">
  <g transform="matrix(1 0 0 1 -11 -10 )">
    <path d="M 11 10  L 41 10  L 41 40  L 11 40  L 11 10  " fill-rule="nonzero" fill="#cccccc" stroke="none" />
    <path d="M 13 12  L 39 12  L 39 38  L 13 38  L 13 12  " fill-rule="nonzero" fill="#ffffff" stroke="none" />
    <path d="M 28.85 19  C 27.59 19  26.6 18.01  26.6 16.75  C 26.6 15.49  27.59 14.5  28.85 14.5  C 30.11 14.5  31.1 15.49  31.1 16.75  C 31.1 18.01  30.11 19  28.85 19  " fill-rule="nonzero" fill="#cccccc" stroke="none" />
    <path d="M 14 37  L 14 23.8  L 20 17.8  L 28.4 22.6  L 33.2 21.4  L 38 22.6  L 38 37  L 14 37  " fill-rule="nonzero" fill="#169bd5" stroke="none" />
  </g>
</svg>